# xmcd
#
# Track frame offsets: 
#        150
#        24253
#        45303
#        66436
#        84611
#        103716
#        122278
#        143377
#        163010
#        189290
#        206712
#        225380
#        252321
#        268036
#        286935
#        309875
#        333223
#
# Disc length: 4769 seconds
#
# Revision: 2
# Processed by: cddbd v1.5.2PL0 Copyright (c) Steve Scherf et al.
# Submitted via: ExactAudioCopy v1.3
#
DISCID=d9129f11
DTITLE=Various Artist - Akella Presents - Vol.72 - Black Pure Blues  
DTITLE=CD1
DYEAR=2016
DGENRE=Blues
TTITLE0=Zac Harmon - Feet Back On The Ground
TTITLE1=I'm A Man - Eddie Burks - Feet Back On The Ground
TTITLE2=The Homemade Jamz Blues Band - The World's Been Good To You
TTITLE3=Johnnycopeland - Blues Ain't Nothing
TTITLE4=Smokehouse - Fork In The Road
TTITLE5=Woody Garrett - I've Got Her
TTITLE6=Larry Garner - Back At It Again
TTITLE7=Bobby Rush With Blind Dog Smokin' - Skinny Little Women
TTITLE8=Joey Gilmore - Last Clean Dress
TTITLE9=Mel Brown - I Wanna See My Baby
TTITLE10=Bobby Bland and B.B. King - Funny How Time Slips Away
TTITLE11=Mannish Boys - The Hard Way
TTITLE12=Howard Tate - Back To My Old Ways Again
TTITLE13=Ironing Board Sam - I'm Looking For A Woman
TTITLE14=Ronnie Baker Brooks - The Torch Of The Blues
TTITLE15=Little Sammy Davis And Midnight Slim - Early In The Morning
TTITLE16=Eddie C. Campbell - Loneliness And Me
EXTD=
EXTT0=
EXTT1=
EXTT2=
EXTT3=
EXTT4=
EXTT5=
EXTT6=
EXTT7=
EXTT8=
EXTT9=
EXTT10=
EXTT11=
EXTT12=
EXTT13=
EXTT14=
EXTT15=
EXTT16=
PLAYORDER=
